HIERARCHY
ROOT joint_Root
{
	OFFSET 0.0 0.0 0.0
	CHANNELS 6 Xposition Yposition Zposition Zrotation Xrotation Yrotation 
	JOINT Hips
	{
		OFFSET 4.5925 91.4895 -427.239
		CHANNELS 6 Xposition Yposition Zposition Zrotation Xrotation Yrotation 
		JOINT Spine
		{
			OFFSET 15.7357 0.0 0.0
			CHANNELS 6 Xposition Yposition Zposition Zrotation Xrotation Yrotation 
			JOINT Chest
			{
				OFFSET 8.98455 -0.406207 0.0
				CHANNELS 6 Xposition Yposition Zposition Zrotation Xrotation Yrotation 
				JOINT Neck
				{
					OFFSET 16.3773 0.0 0.0
					CHANNELS 6 Xposition Yposition Zposition Zrotation Xrotation Yrotation 
					JOINT Head
					{
						OFFSET 6.45672 0.0 0.0
						CHANNELS 6 Xposition Yposition Zposition Zrotation Xrotation Yrotation 
						End Site
						{
							OFFSET 0.0 0.0 0.0
						}
					}
				}
				JOINT Shoulder_L
				{
					OFFSET 12.9942 -0.242716 4.98039
					CHANNELS 6 Xposition Yposition Zposition Zrotation Xrotation Yrotation 
					JOINT UpperArm_L
					{
						OFFSET 5.34809 0.0 0.0
						CHANNELS 6 Xposition Yposition Zposition Zrotation Xrotation Yrotation 
						JOINT LowerArm_L
						{
							OFFSET 24.3286 1.87007e-05 0.0
							CHANNELS 6 Xposition Yposition Zposition Zrotation Xrotation Yrotation 
							JOINT Hand_L
							{
								OFFSET 22.2916 0.0 0.0
								CHANNELS 6 Xposition Yposition Zposition Zrotation Xrotation Yrotation 
								End Site
								{
									OFFSET 0.0 0.0 0.0
								}
							}
						}
					}
				}
				JOINT Shoulder_R
				{
					OFFSET 12.9945 -0.242716 -4.98039
					CHANNELS 6 Xposition Yposition Zposition Zrotation Xrotation Yrotation 
					JOINT UpperArm_R
					{
						OFFSET -5.34813 0.0 0.0
						CHANNELS 6 Xposition Yposition Zposition Zrotation Xrotation Yrotation 
						JOINT LowerArm_R
						{
							OFFSET -24.3289 0.000322201 0.0
							CHANNELS 6 Xposition Yposition Zposition Zrotation Xrotation Yrotation 
							JOINT Hand_R
							{
								OFFSET -22.2915 -0.000108084 0.0
								CHANNELS 6 Xposition Yposition Zposition Zrotation Xrotation Yrotation 
								End Site
								{
									OFFSET 0.0 0.0 0.0
								}
							}
						}
					}
				}
			}
		}
		JOINT UpperLeg_L
		{
			OFFSET -2.19248 -6.46944 0.0
			CHANNELS 6 Xposition Yposition Zposition Zrotation Xrotation Yrotation 
			JOINT LowerLeg_L
			{
				OFFSET 39.0811 0.0 -1.23785e-05
				CHANNELS 6 Xposition Yposition Zposition Zrotation Xrotation Yrotation 
				JOINT Foot_L
				{
					OFFSET 40.9854 0.0 -1.26872e-05
					CHANNELS 6 Xposition Yposition Zposition Zrotation Xrotation Yrotation 
					JOINT Toes_L
					{
						OFFSET 11.7543 0.0 0.0
						CHANNELS 6 Xposition Yposition Zposition Zrotation Xrotation Yrotation 
						End Site
						{
							OFFSET 0.0 0.0 0.0
						}
					}
				}
			}
		}
		JOINT UpperLeg_R
		{
			OFFSET -2.19251 6.46944 0.0
			CHANNELS 6 Xposition Yposition Zposition Zrotation Xrotation Yrotation 
			JOINT LowerLeg_R
			{
				OFFSET -39.0811 -0.00228153 -0.0401928
				CHANNELS 6 Xposition Yposition Zposition Zrotation Xrotation Yrotation 
				JOINT Foot_R
				{
					OFFSET -40.9854 0.0 0.0
					CHANNELS 6 Xposition Yposition Zposition Zrotation Xrotation Yrotation 
					JOINT Toes_R
					{
						OFFSET -11.7543 0.0 0.0
						CHANNELS 6 Xposition Yposition Zposition Zrotation Xrotation Yrotation 
						End Site
						{
							OFFSET 0.0 0.0 0.0
						}
					}
				}
			}
		}
	}
}
MOTION
Frames:	4
Frame Time:	0.0333333
0.000000 0.000000 0.000000 0.000000 0.000000 -0.000000 139.245000 88.473400 -59.561700 87.695300 -1.367620 1.764890 15.735700 0.000005 -0.000001 65.452600 83.465000 -65.300200 8.984550 -0.406207 -0.000000 4.145200 -5.426370 0.501154 16.377300 -0.000001 -0.000001 -2.259070 -8.231190 -0.254475 6.456720 -0.000001 -0.000000 -14.411200 -7.698810 -2.010640 12.994200 -0.242716 4.980390 -91.229900 4.704870 -75.332100 5.348090 -0.000007 -0.000001 -50.829900 27.242700 -28.628900 24.328600 0.000019 0.000005 13.959400 17.032000 -40.317400 22.291600 -0.000001 0.000005 14.686000 5.312700 -0.285403 12.994500 -0.242716 -4.980390 88.124500 9.378830 -78.638400 -5.348130 -0.000001 -0.000004 -75.914900 27.690000 12.863200 -24.328900 0.000322 -0.000009 2.041490 12.590100 -9.292100 -22.291500 -0.000108 -0.000004 6.252610 5.307310 -0.133434 -2.192480 -6.469440 -0.000000 -176.448000 -11.271200 7.395200 39.081100 -0.000007 -0.000012 -0.006122 0.008609 35.421400 40.985400 -0.000006 -0.000013 0.988574 3.093440 -70.800700 11.754300 -0.000000 0.000003 -0.092283 -0.425007 -34.279200 -2.192510 6.469440 -0.000001 -173.762000 17.929500 153.273000 -39.081100 -0.002282 -0.040193 -0.001729 0.005387 42.863100 -40.985400 0.000008 0.000006 3.184710 1.994100 -67.241400 -11.754300 -0.000006 -0.000006 -0.014572 -0.135105 -22.084700
0.000000 0.000000 0.000000 0.000000 0.000000 -0.000000 138.801000 87.822100 -56.720800 87.883200 1.025160 1.442740 15.735700 0.000005 -0.000001 63.816400 83.577100 -63.640000 8.984550 -0.406207 -0.000000 3.785960 -5.666720 0.540125 16.377300 -0.000001 -0.000001 -2.190660 -7.702950 -0.254382 6.456720 -0.000001 -0.000000 -14.342900 -6.882310 -2.253170 12.994200 -0.242716 4.980390 -91.199500 4.477450 -74.986500 5.348090 -0.000007 -0.000001 -51.259200 28.595700 -28.464700 24.328600 0.000019 0.000005 16.445700 16.019800 -46.924700 22.291600 -0.000001 0.000005 15.170100 5.332560 -0.860057 12.994500 -0.242716 -4.980390 88.102200 9.242520 -78.343300 -5.348130 -0.000001 -0.000004 -76.279100 27.275200 14.485900 -24.328900 0.000322 -0.000009 1.997250 12.203500 -9.372660 -22.291500 -0.000108 -0.000004 6.655690 5.315290 -0.360352 -2.192480 -6.469440 -0.000000 -175.514000 -9.894660 8.109810 39.081100 -0.000007 -0.000012 -0.012860 0.017354 36.542000 40.985400 -0.000006 -0.000013 0.456941 4.782510 -70.239100 11.754300 -0.000000 0.000003 -0.121265 -0.494532 -37.333400 -2.192510 6.469440 -0.000001 -173.142000 15.666000 152.892000 -39.081100 -0.002282 -0.040193 0.034081 -0.030790 45.024800 -40.985400 0.000008 0.000006 8.898230 -1.850660 -66.664100 -11.754300 -0.000006 -0.000006 -0.012620 -0.122270 -21.558400
0.000000 0.000000 0.000000 0.000000 0.000000 -0.000000 138.354000 87.043400 -53.383100 87.822500 3.699060 1.579860 15.735700 0.000005 -0.000001 61.798600 83.549200 -61.479100 8.984550 -0.406207 -0.000000 3.638550 -6.100640 0.832694 16.377300 -0.000001 -0.000001 -1.990060 -7.304740 -0.185780 6.456720 -0.000001 -0.000000 -14.269100 -6.018660 -2.361390 12.994200 -0.242716 4.980390 -91.210600 4.421350 -74.670300 5.348090 -0.000007 -0.000001 -52.076500 30.206400 -27.318000 24.328600 0.000019 0.000005 18.448800 14.878600 -52.414200 22.291600 -0.000001 0.000005 15.639700 5.360940 -1.706230 12.994500 -0.242716 -4.980390 87.991000 9.322850 -77.782000 -5.348130 -0.000001 -0.000004 -75.689500 26.844600 15.065800 -24.328900 0.000322 -0.000009 1.947950 11.820200 -9.432110 -22.291500 -0.000108 -0.000004 7.076130 5.325230 -0.646736 -2.192480 -6.469440 -0.000000 -173.775000 -8.840720 8.660500 39.081100 -0.000007 -0.000012 -0.013433 0.016590 39.001900 40.985400 -0.000006 -0.000013 0.043384 7.037210 -68.571700 11.754300 -0.000000 0.000003 -0.178204 -0.607624 -42.468600 -2.192510 6.469440 -0.000001 -173.451000 12.299600 154.022000 -39.081100 -0.002282 -0.040193 0.051726 -0.043676 47.979300 -40.985400 0.000008 0.000006 8.285200 -7.832220 -69.563800 -11.754300 -0.000006 -0.000006 -0.007356 -0.082689 -19.939700
0.000000 0.000000 0.000000 0.000000 0.000000 -0.000000 137.869000 86.384700 -49.850300 87.457900 6.414790 2.343870 15.735700 0.000005 -0.000001 61.037000 83.286800 -60.446000 8.984550 -0.406207 -0.000000 4.036590 -6.511330 1.411400 16.377300 -0.000001 -0.000001 -1.948420 -7.093640 0.030281 6.456720 -0.000001 -0.000000 -14.393700 -5.274840 -2.471290 12.994200 -0.242716 4.980390 -91.307300 4.753090 -74.601900 5.348090 -0.000007 -0.000001 -52.965900 31.916200 -25.638700 24.328600 0.000019 0.000005 19.013200 13.552400 -55.783000 22.291600 -0.000001 0.000005 16.504900 5.391610 -2.662950 12.994500 -0.242716 -4.980390 87.766500 9.933940 -77.260600 -5.348130 -0.000001 -0.000004 -73.890800 26.368300 14.229000 -24.328900 0.000322 -0.000009 1.868910 11.624600 -9.203460 -22.291500 -0.000108 -0.000004 7.457840 5.325980 -0.668921 -2.192480 -6.469440 -0.000000 -171.188000 -8.243220 8.141590 39.081100 -0.000007 -0.000012 0.006373 -0.006677 43.651200 40.985400 -0.000006 -0.000013 -0.418592 9.649990 -64.180700 11.754300 -0.000000 0.000003 -0.270037 -0.750463 -49.357900 -2.192510 6.469440 -0.000001 -173.135000 11.837500 156.308000 -39.081100 -0.002282 -0.040193 0.075478 -0.060379 50.107400 -40.985400 0.000008 0.000006 7.371150 -11.148900 -72.921800 -11.754300 -0.000006 -0.000006 -0.050789 -0.103043 -18.615500
